<svg width="49" height="49" viewBox="0 0 49 49" fill="none" xmlns="http://www.w3.org/2000/svg">
<path fill-rule="evenodd" clip-rule="evenodd" d="M44.6521 48.948H3.81709C1.70892 48.948 0 47.239 0 45.1308V4.29589C0 2.18793 1.70892 0.479004 3.81709 0.479004H44.6521C46.7604 0.479004 48.469 2.18793 48.469 4.29589V45.1308C48.469 47.239 46.7604 48.948 44.6521 48.948Z" fill="#1F2B2D"/>
<path fill-rule="evenodd" clip-rule="evenodd" d="M22.8807 33.8753L14.9405 25.7431L18.8866 21.7018L22.8807 25.7923L26.875 21.7018L30.8209 25.7431L22.8807 33.8753ZM42.7558 13.5203L38.8096 9.479L34.8156 13.5696L30.8209 9.479L26.8269 13.5696L22.8807 9.52828L7 25.7923L22.8807 42.0565L38.7615 25.7923L34.7672 21.7018L42.7558 13.5203Z" fill="#16D4C4"/>
</svg>
